<svg viewBox="0 0 800 600"  fill="currentColor" width="800" height="600" xmlns="http://www.w3.org/2000/svg">

 <g>
  <title>Layer 1</title>
  <path stroke="currentColor" stroke-width="10" id="svg_9" d="m-157,196c8.54867,-4 224.70797,-118 389.57523,-109c164.86726,9 202.72567,103 404.2301,70c201.50443,-33 200.28319,-100 310.1947,-99" opacity="NaN" fill="none"/>
  <path stroke="currentColor" stroke-width="10" id="svg_10" d="m-173,516c8.54867,-4 224.70797,-118 389.57523,-109c164.86726,9 202.72567,103 404.2301,70c201.50443,-33 200.28319,-100 310.1947,-99" opacity="NaN" fill="none"/>
  <path transform="rotate(-87.8876 195 324.994)" stroke="currentColor" stroke-width="10" id="svg_15" d="m-357,394c8.54867,-4 224.70797,-118 389.57523,-109c164.86726,9 202.72567,103 404.2301,70c201.50443,-33 200.28319,-100 310.1947,-99" opacity="NaN" fill="none"/>
  <path transform="rotate(-87.8876 625 314.994)" stroke="currentColor" stroke-width="10" id="svg_16" d="m73,384c8.54867,-4 224.70797,-118 389.57523,-109c164.86726,9 202.72567,103 404.2301,70c201.50443,-33 200.28319,-100 310.1947,-99" opacity="NaN" fill="none"/>
 </g>
</svg>