<?xml version="1.0" standalone="no"?>
<!DOCTYPE svg PUBLIC "-//W3C//DTD SVG 20010904//EN"
 "http://www.w3.org/TR/2001/REC-SVG-20010904/DTD/svg10.dtd">
<svg version="1.0" xmlns="http://www.w3.org/2000/svg"
 width="512.000000pt" height="512.000000pt" viewBox="0 0 512.000000 512.000000"
 preserveAspectRatio="xMidYMid meet">

<g transform="translate(0.000000,512.000000) scale(0.100000,-0.100000)"
fill="currentColor" stroke="none">
<path d="M3195 4894 c-132 -29 -259 -112 -346 -227 -93 -122 -140 -176 -255
-292 -459 -465 -1036 -873 -1689 -1195 -121 -59 -274 -129 -340 -155 -153 -60
-193 -84 -245 -142 -220 -250 -206 -783 34 -1262 221 -440 549 -667 832 -575
55 17 468 86 495 82 16 -2 40 -44 111 -193 227 -479 242 -508 284 -531 22 -12
154 -61 294 -109 140 -47 269 -91 286 -97 27 -10 39 -8 80 13 61 30 86 65 91
126 2 26 -21 248 -51 492 -31 245 -54 446 -53 448 2 1 71 8 153 15 95 8 327
13 644 13 445 0 503 -2 570 -19 419 -102 760 194 854 742 59 340 1 850 -144
1277 -122 361 -307 723 -498 977 -238 316 -515 534 -768 604 -85 23 -253 27
-339 8z m281 -329 c377 -127 773 -657 1018 -1364 147 -424 183 -884 96 -1226
-53 -209 -185 -367 -325 -389 -88 -14 -221 27 -338 104 -88 57 -220 171 -272
235 l-37 45 46 51 c55 61 99 149 128 256 31 114 30 365 -1 513 -67 316 -231
643 -424 847 -38 40 -99 92 -135 118 -68 46 -186 94 -232 95 -60 1 -70 9 -70
58 0 106 59 355 107 452 42 86 124 174 193 207 63 31 151 30 246 -2z m-847
-1105 c52 -350 121 -611 232 -873 140 -331 319 -625 527 -861 l92 -106 -77 0
c-151 0 -591 -20 -773 -35 -486 -40 -1012 -118 -1413 -210 -83 -19 -160 -35
-171 -35 -46 0 -130 52 -201 123 -164 164 -305 448 -350 703 -19 112 -19 300
0 383 25 106 39 120 162 170 653 264 1337 691 1903 1189 l45 40 7 -207 c3
-113 11 -240 17 -281z m417 32 c191 -124 370 -454 429 -790 30 -171 16 -373
-31 -464 l-16 -31 -18 23 c-36 48 -180 320 -233 440 -112 256 -227 672 -227
821 0 51 18 51 96 1z m-646 -2244 c0 -2 18 -144 40 -317 22 -173 38 -316 37
-318 -2 -1 -49 11 -104 29 l-101 31 -120 263 -120 263 42 6 c22 3 102 14 176
24 74 10 138 19 143 20 4 1 7 0 7 -1z"/>
</g>
</svg>
