<?xml version="1.0" standalone="no"?>
<!DOCTYPE svg PUBLIC "-//W3C//DTD SVG 20010904//EN"
 "http://www.w3.org/TR/2001/REC-SVG-20010904/DTD/svg10.dtd">
<svg version="1.0" xmlns="http://www.w3.org/2000/svg"
 width="512.000000pt" height="512.000000pt" viewBox="0 0 512.000000 512.000000"
 preserveAspectRatio="xMidYMid meet">

<g transform="translate(0.000000,512.000000) scale(0.100000,-0.100000)"
fill="currentColor" stroke="none">
<path d="M1568 5110 c-337 -57 -604 -302 -694 -635 -18 -67 -19 -138 -19
-1870 l0 -1800 23 -33 c29 -41 90 -72 138 -72 53 0 114 33 144 77 l25 37 5
1780 c5 1658 6 1784 22 1831 52 149 172 270 325 328 l58 22 1345 3 c947 2
1364 0 1410 -8 191 -33 355 -185 405 -375 13 -52 15 -273 15 -1835 0 -1562 -2
-1783 -15 -1835 -49 -188 -212 -340 -399 -374 -83 -15 -3349 -15 -3432 0 -172
31 -314 152 -387 332 l-22 52 -5 1790 c-5 1680 -6 1792 -22 1822 -37 68 -115
103 -193 89 -43 -8 -103 -59 -121 -103 -12 -27 -14 -337 -14 -1792 0 -1556 2
-1768 16 -1841 32 -171 101 -305 222 -432 127 -133 270 -213 447 -249 86 -18
173 -19 1791 -19 1505 0 1711 2 1784 16 171 32 305 101 432 222 133 127 213
270 249 447 18 86 19 174 19 1875 0 1701 -1 1789 -19 1875 -36 177 -116 320
-249 447 -127 121 -284 201 -452 227 -77 13 -2759 13 -2832 1z"/>
<path d="M1633 4089 c-75 -22 -133 -117 -118 -192 10 -49 49 -102 88 -121 33
-15 144 -16 1383 -16 l1348 0 39 26 c42 28 77 90 77 139 0 37 -30 104 -58 128
-53 47 -16 46 -1412 46 -773 -1 -1328 -5 -1347 -10z"/>
<path d="M1773 3226 c-88 -28 -175 -106 -216 -194 -22 -47 -22 -52 -22 -557
l0 -510 27 -57 c32 -69 96 -135 163 -168 l50 -25 426 -3 c410 -3 428 -2 482
18 77 29 140 87 179 168 l33 67 0 510 0 510 -26 56 c-34 72 -96 134 -168 168
l-56 26 -415 2 c-321 2 -424 -1 -457 -11z m787 -751 l0 -425 -345 0 -345 0 0
425 0 425 345 0 345 0 0 -425z"/>
<path d="M3182 3053 c-100 -49 -128 -177 -57 -261 53 -63 38 -62 639 -62 602
0 586 -2 643 63 75 85 38 226 -70 266 -19 7 -213 11 -575 11 -483 0 -551 -2
-580 -17z"/>
<path d="M3184 2201 c-102 -46 -130 -175 -58 -261 53 -62 30 -60 639 -60 622
0 604 -2 651 70 61 92 29 206 -70 251 -38 17 -77 19 -581 19 -505 0 -543 -2
-581 -19z"/>
<path d="M1629 1337 c-53 -35 -79 -82 -79 -140 0 -69 35 -128 93 -156 43 -21
44 -21 1353 -21 1253 0 1311 1 1350 19 99 45 131 159 70 251 -50 75 61 70
-1424 70 l-1329 0 -34 -23z"/>
</g>
</svg>
