<?xml version="1.0" standalone="no"?>
<!DOCTYPE svg PUBLIC "-//W3C//DTD SVG 20010904//EN"
 "http://www.w3.org/TR/2001/REC-SVG-20010904/DTD/svg10.dtd">
<svg version="1.0" xmlns="http://www.w3.org/2000/svg"
 width="512.000000pt" height="512.000000pt" viewBox="0 0 512.000000 512.000000"
 preserveAspectRatio="xMidYMid meet">

<g transform="translate(0.000000,512.000000) scale(0.100000,-0.100000)"
fill="currentColor" stroke="none">
<path d="M2370 5114 c-19 -2 -78 -9 -130 -15 -282 -32 -627 -140 -880 -275
-111 -60 -313 -195 -420 -281 -108 -87 -276 -255 -363 -363 -306 -380 -490
-807 -558 -1300 -17 -123 -18 -516 -1 -635 84 -592 328 -1088 733 -1494 406
-406 901 -648 1494 -733 119 -17 512 -16 635 1 580 80 1087 330 1490 733 464
465 723 1063 747 1723 13 391 -63 781 -223 1137 -54 121 -139 272 -166 297
-47 44 -128 27 -153 -32 -18 -43 -11 -70 40 -156 131 -222 239 -540 282 -826
24 -166 24 -515 -1 -673 -23 -146 -65 -320 -111 -452 -76 -219 -239 -512 -385
-690 -60 -74 -261 -280 -272 -280 -5 0 -8 7 -8 15 0 9 -16 66 -36 128 -181
564 -640 972 -1226 1089 -162 32 -434 32 -596 0 -605 -121 -1079 -557 -1242
-1142 -13 -47 -25 -87 -27 -89 -7 -9 -194 184 -267 274 -361 444 -546 1003
-522 1575 15 379 110 721 289 1045 357 647 989 1086 1727 1201 160 25 519 25
678 0 393 -61 730 -198 1040 -421 69 -50 103 -67 128 -68 70 -2 120 69 94 133
-7 17 -40 51 -79 79 -350 258 -746 418 -1191 481 -78 11 -459 21 -520 14z
m360 -3265 c464 -57 872 -343 1079 -757 51 -102 104 -259 124 -366 l15 -78
-107 -70 c-273 -178 -597 -300 -943 -354 -172 -28 -529 -25 -703 4 -343 59
-654 178 -916 351 l-107 70 15 78 c97 524 496 948 1019 1086 170 45 353 58
524 36z"/>
<path d="M4351 4286 c-87 -48 -50 -186 49 -186 51 0 100 49 100 99 0 75 -83
124 -149 87z"/>
<path d="M2380 4041 c-339 -74 -601 -323 -691 -656 -18 -65 -22 -107 -22 -225
0 -118 4 -160 22 -225 88 -324 340 -570 668 -652 103 -26 323 -23 428 6 317
85 560 329 646 646 18 65 22 107 22 225 0 118 -4 160 -22 225 -86 317 -333
564 -646 646 -116 30 -294 35 -405 10z m313 -195 c212 -41 395 -182 491 -378
101 -207 101 -409 -1 -618 -38 -79 -60 -109 -132 -181 -72 -72 -102 -94 -181
-132 -209 -102 -411 -102 -620 0 -79 38 -109 60 -181 132 -71 71 -94 102 -133
181 -101 206 -101 414 0 620 39 79 62 110 133 181 71 71 102 94 181 133 146
72 287 91 443 62z"/>
</g>
</svg>
